<svg width="34" height="37" viewBox="0 0 34 37" fill="none" xmlns="http://www.w3.org/2000/svg">
<g clip-path="url(#clip0_5862_557)">
<path d="M17 36.2454C26.3888 36.2454 34 28.3006 34 18.5002C34 8.69972 26.3888 0.754883 17 0.754883C7.61116 0.754883 0 8.69972 0 18.5002C0 28.3006 7.61116 36.2454 17 36.2454Z" fill="url(#paint0_linear_5862_557)"/>
<path d="M20.4358 9.62744H13.5642C12.2216 9.62929 10.9346 10.1868 9.98523 11.1778C9.03589 12.1687 8.50178 13.5122 8.5 14.9137V22.0865C8.50178 23.4879 9.03589 24.8314 9.98523 25.8224C10.9346 26.8133 12.2216 27.3709 13.5642 27.3727H20.4358C21.7785 27.3715 23.066 26.8142 24.0154 25.8231C24.9649 24.832 25.4988 23.4881 25.5 22.0865V14.9137C25.4982 13.5122 24.9641 12.1687 24.0148 11.1778C23.0654 10.1868 21.7784 9.62929 20.4358 9.62744V9.62744ZM23.7911 22.0865C23.7911 23.0154 23.4376 23.9062 22.8083 24.563C22.1791 25.2199 21.3257 25.5889 20.4358 25.5889H13.5642C12.6743 25.5889 11.8209 25.2199 11.1917 24.563C10.5624 23.9062 10.2089 23.0154 10.2089 22.0865V14.9137C10.2089 13.9848 10.5624 13.0939 11.1917 12.4371C11.8209 11.7803 12.6743 11.4113 13.5642 11.4113H20.4358C21.3257 11.4113 22.1791 11.7803 22.8083 12.4371C23.4376 13.0939 23.7911 13.9848 23.7911 14.9137V22.0865Z" fill="white"/>
<path d="M17.0014 13.9121C16.1315 13.9116 15.2809 14.1805 14.5574 14.6848C13.8339 15.189 13.2699 15.9059 12.9367 16.7448C12.6036 17.5837 12.5163 18.5068 12.686 19.3975C12.8556 20.2882 13.2744 21.1063 13.8896 21.7485C14.5048 22.3906 15.2885 22.8278 16.1418 23.0049C16.9951 23.1819 17.8795 23.0908 18.6831 22.7431C19.4868 22.3954 20.1736 21.8066 20.6566 21.0514C21.1397 20.2961 21.3973 19.4083 21.3968 18.5002C21.3956 17.2837 20.9322 16.1175 20.1081 15.2573C19.2841 14.3971 18.1668 13.9133 17.0014 13.9121V13.9121ZM17.0014 21.3021C16.4705 21.3021 15.9516 21.1378 15.5102 20.8299C15.0687 20.522 14.7247 20.0844 14.5215 19.5724C14.3184 19.0605 14.2652 18.4971 14.3688 17.9536C14.4724 17.4101 14.728 16.9108 15.1034 16.519C15.4788 16.1271 15.9571 15.8603 16.4778 15.7522C16.9985 15.644 17.5382 15.6995 18.0286 15.9116C18.5191 16.1237 18.9383 16.4828 19.2333 16.9436C19.5282 17.4043 19.6856 17.946 19.6856 18.5002C19.6856 19.2433 19.4028 19.956 18.8995 20.4814C18.3961 21.0069 17.7133 21.3021 17.0014 21.3021Z" fill="white"/>
<path d="M21.423 15.0469C22.0234 15.0469 22.5102 14.5388 22.5102 13.9121C22.5102 13.2854 22.0234 12.7773 21.423 12.7773C20.8227 12.7773 20.3359 13.2854 20.3359 13.9121C20.3359 14.5388 20.8227 15.0469 21.423 15.0469Z" fill="white"/>
</g>
<defs>
<linearGradient id="paint0_linear_5862_557" x1="17" y1="36.082" x2="17" y2="3.15984" gradientUnits="userSpaceOnUse">
<stop stop-color="#E09B3D"/>
<stop offset="0.24" stop-color="#C74C4D"/>
<stop offset="0.65" stop-color="#C21975"/>
<stop offset="1" stop-color="#7024C4"/>
</linearGradient>
<clipPath id="clip0_5862_557">
<rect width="34" height="35.4906" fill="white" transform="translate(0 0.754883)"/>
</clipPath>
</defs>
</svg>
