<svg width="33" height="37" viewBox="0 0 33 37" fill="none" xmlns="http://www.w3.org/2000/svg">
<g clip-path="url(#clip0_5862_565)">
<path d="M16.5 36.2454C25.6127 36.2454 33 28.3006 33 18.5002C33 8.69972 25.6127 0.754883 16.5 0.754883C7.3873 0.754883 0 8.69972 0 18.5002C0 28.3006 7.3873 36.2454 16.5 36.2454Z" fill="#4065D6"/>
<path d="M24.1131 23.5718C23.7267 23.6302 21.8487 23.5718 21.751 23.5718C21.2655 23.5771 20.7976 23.3767 20.4484 23.0138C20.0511 22.6028 19.6929 22.1499 19.3129 21.7226C19.1976 21.5923 19.0735 21.4714 18.9417 21.3607C18.6312 21.1062 18.3251 21.1645 18.1796 21.5568C18.0657 21.982 17.9873 22.4172 17.9452 22.8573C17.9384 23.0427 17.8635 23.2177 17.7369 23.3438C17.6103 23.4698 17.4424 23.5367 17.27 23.5298C17.0138 23.5438 16.7576 23.5508 16.5036 23.5438C15.5796 23.5386 14.6698 23.2986 13.8484 22.8433C12.9617 22.3104 12.1888 21.5834 11.5796 20.7092C10.605 19.3251 9.76274 17.8388 9.06557 16.2729C9.02866 16.1935 8.29702 14.5194 8.27965 14.4423C8.23429 14.3326 8.22996 14.2084 8.26756 14.0953C8.30515 13.9823 8.38179 13.8891 8.48156 13.8353C8.61182 13.7816 11.0239 13.8353 11.0629 13.8353C11.2425 13.8334 11.418 13.8934 11.5637 14.0064C11.7094 14.1194 11.8177 14.2795 11.8727 14.4634C12.3188 15.6865 12.928 16.8332 13.6812 17.8676C13.7863 18.0071 13.9099 18.129 14.0481 18.2296C14.0838 18.2665 14.1279 18.2926 14.176 18.3051C14.2242 18.3176 14.2745 18.316 14.3219 18.3005C14.3693 18.285 14.4119 18.2562 14.4455 18.2171C14.479 18.1779 14.5023 18.1298 14.5127 18.0778C14.6082 17.7402 14.6643 17.3912 14.6799 17.0388C14.6929 16.3383 14.6799 15.8713 14.643 15.1708C14.6561 14.9321 14.5812 14.6975 14.4345 14.5178C14.2877 14.3382 14.081 14.228 13.8593 14.2112C13.6682 14.1762 13.6421 14.008 13.7746 13.8399C14.0286 13.492 14.3803 13.436 14.7624 13.415C15.3399 13.38 15.9196 13.415 16.4993 13.415H16.6252C16.8797 13.4143 17.1336 13.4417 17.3829 13.4967C17.5286 13.5288 17.6609 13.6107 17.7599 13.7302C17.8588 13.8497 17.9193 14.0004 17.9321 14.1598C17.9614 14.3362 17.9745 14.5153 17.9712 14.6945C17.956 15.458 17.9213 16.2215 17.9126 16.9874C17.9074 17.2899 17.9329 17.5921 17.9886 17.8887C18.0733 18.2949 18.3316 18.3977 18.5965 18.1011C18.9266 17.7201 19.2292 17.3127 19.5018 16.8823C19.992 16.0987 20.3957 15.2564 20.7046 14.3723C20.8718 13.9193 20.9998 13.8189 21.4536 13.8189H24.0133C24.166 13.8162 24.3182 13.8382 24.4648 13.8843C24.5166 13.8991 24.565 13.9253 24.6069 13.961C24.6489 13.9968 24.6836 14.0415 24.7088 14.0923C24.7341 14.1431 24.7493 14.1989 24.7537 14.2563C24.758 14.3137 24.7513 14.3715 24.7341 14.426C24.5844 15.0117 24.3275 15.5595 23.9785 16.0371C23.4575 16.8286 22.9104 17.6015 22.3763 18.372C22.3087 18.4728 22.2471 18.5781 22.1918 18.6872C21.992 19.0748 22.0072 19.2943 22.296 19.6212C22.7606 20.1348 23.2577 20.6182 23.705 21.1459C24.0348 21.5304 24.3327 21.9452 24.5951 22.3857C24.9251 22.9554 24.7232 23.4784 24.1131 23.5718V23.5718Z" fill="white"/>
</g>
<defs>
<clipPath id="clip0_5862_565">
<rect width="33" height="35.4906" fill="white" transform="translate(0 0.754883)"/>
</clipPath>
</defs>
</svg>
