<svg width="34" height="37" viewBox="0 0 34 37" fill="none" xmlns="http://www.w3.org/2000/svg">
<g clip-path="url(#clip0_5862_570)">
<path d="M17 36.2454C26.3888 36.2454 34 28.3006 34 18.5002C34 8.69972 26.3888 0.754883 17 0.754883C7.61116 0.754883 0 8.69972 0 18.5002C0 28.3006 7.61116 36.2454 17 36.2454Z" fill="#039BE5"/>
<path d="M7.78246 18.1155L24.1733 11.5187C24.9341 11.2318 25.5985 11.7124 25.352 12.9132L25.3534 12.9117L22.5626 26.6362C22.3557 27.6093 21.8018 27.8459 21.0269 27.3874L16.7769 24.1179L14.727 26.1793C14.5003 26.4159 14.309 26.6155 13.8699 26.6155L14.1716 22.1008L22.0483 14.673C22.3911 14.358 21.9718 14.1805 21.5199 14.494L11.786 20.8912L7.5898 19.5248C6.67888 19.2231 6.65905 18.574 7.78246 18.1155V18.1155Z" fill="white"/>
</g>
<defs>
<clipPath id="clip0_5862_570">
<rect width="34" height="35.4906" fill="white" transform="translate(0 0.754883)"/>
</clipPath>
</defs>
</svg>
